<svg width="230" height="52" viewBox="0 0 230 52" fill="none" xmlns="http://www.w3.org/2000/svg">
<path d="M93.0145 40.5587H87.334V25.9884C87.334 24.1904 87.0068 22.8362 86.3756 21.9489C85.7444 21.0616 84.7393 20.6179 83.3834 20.6179C82.4016 20.6179 81.5601 20.8281 80.8588 21.2484C80.1575 21.6687 79.5965 22.2758 79.1991 23.0697C78.8017 23.8635 78.5913 24.8442 78.5913 25.9884V40.5587H72.9576V25.9884C72.9576 24.1904 72.6303 22.8362 71.9991 21.9489C71.368 21.0616 70.3394 20.6179 68.9602 20.6179C68.0252 20.6179 67.207 20.8281 66.4823 21.2484C65.781 21.6687 65.22 22.2758 64.8226 23.0697C64.4252 23.8635 64.2148 24.8442 64.2148 25.9884V40.5587H58.698V16.6485H64.2148V20.1276C64.9395 18.82 65.8745 17.816 66.9732 17.1388C68.0953 16.4617 69.4277 16.1348 70.9706 16.1348C72.7004 16.1348 74.1498 16.5084 75.3186 17.2322C76.4874 17.9561 77.329 19.0068 77.8432 20.4078C78.7082 18.9834 79.7835 17.9094 81.0458 17.2089C82.3081 16.5084 83.7341 16.1348 85.347 16.1348C87.0769 16.1348 88.5029 16.485 89.6249 17.2089C90.747 17.9094 91.5652 18.9601 92.1496 20.3611C92.734 21.7621 93.0145 23.4199 93.0145 25.3579V40.6054V40.5587Z" fill="#252C33"/>
<path d="M105.451 52H99.4664L105.778 37.7567L96.1002 16.6484H102.552L110.196 35.5851L107.531 35.4217L115.035 16.6484H121.066L105.451 52.0234V52Z" fill="#252C33"/>
<path d="M129.949 32.503C130.861 33.5537 131.889 34.3476 133.011 34.9547C134.133 35.5618 135.372 35.842 136.728 35.842C138.388 35.842 139.744 35.3984 140.796 34.4877C141.848 33.5771 142.362 32.4096 142.362 30.9619C142.362 29.6543 142.035 28.5802 141.404 27.763C140.772 26.9457 139.861 26.2452 138.669 25.6848C137.476 25.1244 136.144 24.5407 134.601 24.0036C133.689 23.7001 132.684 23.2565 131.585 22.7194C130.463 22.1824 129.411 21.5052 128.406 20.688C127.401 19.8707 126.56 18.8667 125.905 17.6759C125.25 16.485 124.923 15.0373 124.923 13.3328C124.923 11.3948 125.437 9.69022 126.443 8.21919C127.448 6.74815 128.804 5.60401 130.534 4.76342C132.24 3.92283 134.204 3.52588 136.401 3.52588C138.598 3.52588 140.422 3.92283 142.035 4.69337C143.624 5.46391 144.98 6.4446 146.102 7.63544C147.224 8.82628 148.066 10.0405 148.65 11.3247L143.694 14.1267C143.204 13.216 142.619 12.3755 141.918 11.6049C141.217 10.8344 140.422 10.2039 139.487 9.73692C138.552 9.26993 137.5 9.03643 136.284 9.03643C134.578 9.03643 133.339 9.43338 132.544 10.2039C131.749 10.9745 131.352 11.8851 131.352 12.9358C131.352 13.8698 131.632 14.7104 132.217 15.4576C132.801 16.2048 133.689 16.9053 134.905 17.5591C136.12 18.2129 137.71 18.89 139.65 19.5905C140.772 19.9641 141.871 20.4545 142.946 21.0382C144.045 21.622 145.027 22.3458 145.915 23.2331C146.803 24.097 147.528 25.1244 148.066 26.3386C148.627 27.5295 148.907 28.9305 148.907 30.5182C148.907 32.2228 148.557 33.7405 147.902 35.0948C147.248 36.4491 146.313 37.5932 145.167 38.5039C144.022 39.4145 142.736 40.1384 141.287 40.6287C139.837 41.1424 138.341 41.3759 136.775 41.3759C134.648 41.3759 132.684 40.9556 130.861 40.0917C129.037 39.2511 127.448 38.1069 126.069 36.6826C124.689 35.2583 123.614 33.7172 122.819 32.0593L127.401 28.8371C128.196 30.2614 129.061 31.4989 129.972 32.5263L129.949 32.503Z" fill="#252C33"/>
<path d="M159.38 32.5495C160.035 33.6937 160.923 34.6043 162.068 35.2581C163.214 35.9119 164.453 36.2388 165.832 36.2388C167.001 36.2388 168.123 36.052 169.128 35.7017C170.156 35.3281 171.068 34.8611 171.863 34.2541C172.658 33.647 173.242 32.9698 173.64 32.1993V38.387C172.798 39.2276 171.676 39.8814 170.25 40.3717C168.824 40.862 167.258 41.0955 165.575 41.0955C163.144 41.0955 160.946 40.5585 158.983 39.5078C157.019 38.457 155.476 36.986 154.331 35.0946C153.185 33.2033 152.601 31.0551 152.601 28.6268C152.601 26.1984 153.185 24.0035 154.331 22.1355C155.476 20.2675 157.019 18.7965 158.983 17.7457C160.946 16.695 163.144 16.158 165.575 16.158C167.281 16.158 168.847 16.3915 170.25 16.8818C171.653 17.3721 172.798 18.0026 173.64 18.7965V25.0309C173.266 24.237 172.658 23.5365 171.84 22.9294C171.021 22.3223 170.086 21.8553 169.058 21.5051C168.006 21.1548 166.931 20.9914 165.832 20.9914C164.453 20.9914 163.19 21.3183 162.068 21.9721C160.946 22.6259 160.058 23.5365 159.38 24.6806C158.702 25.8248 158.398 27.1324 158.398 28.6268C158.398 30.1211 158.725 31.4287 159.38 32.5729V32.5495Z" fill="#252C33"/>
<path d="M183.972 35.188C184.346 35.7718 184.884 36.1921 185.561 36.4723C186.239 36.7525 187.011 36.8926 187.876 36.8926C189.021 36.8926 190.05 36.6591 190.985 36.1921C191.896 35.7251 192.645 35.0479 193.206 34.184C193.767 33.32 194.047 32.2693 194.047 31.0551L194.889 34.184C194.889 35.7017 194.445 36.986 193.556 38.0367C192.668 39.0874 191.569 39.858 190.213 40.3483C188.881 40.862 187.525 41.0955 186.123 41.0955C184.626 41.0955 183.247 40.792 181.962 40.2082C180.676 39.6245 179.647 38.7605 178.899 37.6164C178.128 36.4723 177.754 35.0946 177.754 33.4601C177.754 31.1485 178.572 29.2805 180.208 27.9262C181.845 26.5486 184.159 25.8715 187.128 25.8715C188.717 25.8715 190.096 26.0349 191.265 26.3852C192.434 26.7354 193.393 27.1323 194.164 27.5993C194.935 28.0663 195.473 28.4866 195.777 28.8602V31.7323C194.702 30.9617 193.556 30.4247 192.341 30.0744C191.125 29.7242 189.839 29.5607 188.484 29.5607C187.291 29.5607 186.356 29.7008 185.608 30.0044C184.884 30.3079 184.323 30.7049 183.972 31.2186C183.621 31.7323 183.434 32.386 183.434 33.1332C183.434 33.8804 183.621 34.6043 184.019 35.188H183.972ZM179.343 18.9366C180.465 18.2828 181.868 17.629 183.551 17.0219C185.258 16.3914 187.221 16.0879 189.489 16.0879C191.429 16.0879 193.159 16.3681 194.702 16.9518C196.244 17.5356 197.413 18.3762 198.278 19.4736C199.12 20.5944 199.564 21.9253 199.564 23.5365V40.6052H194.047V24.6339C194.047 23.8634 193.93 23.2563 193.673 22.7659C193.439 22.2756 193.065 21.8786 192.598 21.5751C192.13 21.2715 191.593 21.038 190.961 20.8979C190.33 20.7579 189.652 20.6878 188.928 20.6878C187.806 20.6878 186.777 20.8279 185.772 21.0847C184.79 21.3416 183.949 21.6685 183.247 22.0187C182.546 22.3923 182.008 22.6959 181.634 22.9294L179.343 18.9833V18.9366Z" fill="#252C33"/>
<path d="M211.766 0V40.5586H206.086V0H211.766Z" fill="#252C33"/>
<path d="M217.026 5.7673C217.377 4.95006 217.844 4.22621 218.452 3.61912C219.06 3.01202 219.785 2.54503 220.603 2.21813C221.421 1.89123 222.309 1.72778 223.268 1.72778C224.226 1.72778 225.114 1.89123 225.933 2.21813C226.751 2.54503 227.452 3.01202 228.06 3.61912C228.668 4.22621 229.135 4.95006 229.486 5.7673C229.836 6.58454 230 7.49518 230 8.45252C230 9.40987 229.836 10.3205 229.486 11.1378C229.135 11.955 228.668 12.6788 228.06 13.2859C227.452 13.893 226.751 14.36 225.933 14.6869C225.114 15.0138 224.226 15.1773 223.268 15.1773C222.309 15.1773 221.421 15.0138 220.603 14.6869C219.785 14.36 219.06 13.893 218.452 13.2859C217.844 12.6788 217.377 11.9783 217.026 11.1378C216.675 10.3205 216.512 9.40987 216.512 8.45252C216.512 7.49518 216.675 6.58454 217.026 5.7673ZM217.961 10.7642C218.242 11.4646 218.662 12.0951 219.177 12.6088C219.691 13.1225 220.299 13.5428 221 13.823C221.701 14.1032 222.449 14.2433 223.268 14.2433C224.086 14.2433 224.834 14.1032 225.535 13.823C226.236 13.5428 226.844 13.1225 227.358 12.6088C227.873 12.0951 228.27 11.4646 228.574 10.7642C228.855 10.0637 228.995 9.29312 228.995 8.45252C228.995 7.61193 228.855 6.84139 228.574 6.1409C228.294 5.4404 227.873 4.83331 227.358 4.29626C226.844 3.78257 226.236 3.36227 225.535 3.08207C224.834 2.80187 224.086 2.66178 223.268 2.66178C222.449 2.66178 221.701 2.80187 221 3.08207C220.299 3.36227 219.691 3.78257 219.177 4.29626C218.662 4.80996 218.265 5.4404 217.961 6.1409C217.657 6.84139 217.54 7.61193 217.54 8.45252C217.54 9.29312 217.681 10.0637 217.961 10.7642ZM222.075 4.34296V12.2118H220.743V4.34296H222.075ZM221.538 4.34296H223.197C224.039 4.34296 224.74 4.57646 225.255 4.99676C225.769 5.4404 226.026 6.02415 226.026 6.72464C226.026 7.42513 225.769 8.05558 225.255 8.49922C224.74 8.94287 224.062 9.17637 223.197 9.17637H221.538V8.07893H223.127C223.595 8.07893 223.969 7.96218 224.226 7.75203C224.483 7.54188 224.647 7.19164 224.647 6.77134C224.647 6.35104 224.507 6.02415 224.226 5.814C223.946 5.60385 223.571 5.4871 223.127 5.4871H221.538V4.34296ZM223.852 8.54592L226.423 12.1885H224.834L222.52 8.54592H223.875H223.852Z" fill="#252C33"/>
<path d="M3.88048 28.8135C1.6831 28.6734 0 26.7354 0 24.5405V10.4373C0 6.77133 2.9688 3.80591 6.63889 3.80591H37.5191C39.7398 3.80591 41.6567 5.46374 41.7969 7.68197C41.9606 10.087 40.0437 12.0951 37.6593 12.0951H9.81807C8.9999 12.0951 8.32198 12.7722 8.32198 13.5895V24.6573C8.32198 27.039 6.31162 28.9536 3.90385 28.7902L3.88048 28.8135Z" fill="url(#paint0_linear_173_9657)"/>
<path d="M35.158 45.5321H4.30124C2.08048 45.5321 0.163622 43.8743 0.0233639 41.656C-0.140271 39.251 1.77659 37.2429 4.16098 37.2429H32.0022C32.8204 37.2429 33.4983 36.5658 33.4983 35.7485V24.8208C33.4983 22.6026 35.158 20.6879 37.3788 20.5478C39.7866 20.3844 41.7969 22.2991 41.7969 24.6807V38.9241C41.7969 42.59 38.8281 45.5555 35.158 45.5555V45.5321Z" fill="#1B3BE3"/>
<path d="M24.5452 28.8137H17.2518C14.9609 28.8137 13.0908 26.9458 13.0908 24.6575C13.0908 22.3692 14.9609 20.5012 17.2518 20.5012H24.5452C26.8361 20.5012 28.7062 22.3692 28.7062 24.6575C28.7062 26.9458 26.8361 28.8137 24.5452 28.8137Z" fill="#1B3BE3"/>
<path style="mix-blend-mode:multiply" opacity="0.5" d="M41.7969 7.65878C41.6567 5.4639 39.7164 3.78271 37.519 3.78271C37.519 3.78271 19.6361 4.55326 9.81805 12.0719H37.6593C40.0437 12.0719 41.9605 10.0638 41.7969 7.65878Z" fill="url(#paint1_linear_173_9657)"/>
<path style="mix-blend-mode:multiply" d="M4.16097 37.2429C1.77658 37.2429 -0.140285 39.251 -2.66337e-05 41.6794C0.140232 43.8743 2.08047 45.5554 4.27785 45.5554C4.27785 45.5554 25.0828 44.458 31.9788 37.2663H4.16097V37.2429Z" fill="url(#paint2_linear_173_9657)"/>
<path style="mix-blend-mode:multiply" d="M37.3788 20.5244C35.1814 20.6645 33.4983 22.6025 33.4983 24.7974C33.4983 24.7974 40.8385 27.3192 41.7969 38.9007V24.6573C41.7969 22.2756 39.7865 20.3609 37.3788 20.5244Z" fill="url(#paint3_linear_173_9657)"/>
<path style="mix-blend-mode:multiply" opacity="0.5" d="M3.88048 28.8135C6.28824 28.977 8.29861 27.0623 8.29861 24.6806C8.29861 24.6806 1.14544 23.7466 0 10.4373V24.5405C0 26.7588 1.65972 28.6734 3.88048 28.8135Z" fill="url(#paint4_linear_173_9657)"/>
<path style="mix-blend-mode:multiply" opacity="0.5" d="M24.5452 20.5244H17.2518C14.9609 20.5244 13.0908 22.3924 13.0908 24.6807C13.0908 26.969 14.9609 28.8369 17.2518 28.8369C24.5218 27.2492 24.5452 20.5478 24.5452 20.5478V20.5244Z" fill="url(#paint5_linear_173_9657)"/>
<defs>
<linearGradient id="paint0_linear_173_9657" x1="12.1323" y1="-0.490455" x2="23.4496" y2="21.1887" gradientUnits="userSpaceOnUse">
<stop stop-color="#00B3FF"/>
<stop offset="1" stop-color="#0043C4"/>
</linearGradient>
<linearGradient id="paint1_linear_173_9657" x1="27.2568" y1="13.5663" x2="24.0607" y2="4.94783" gradientUnits="userSpaceOnUse">
<stop stop-color="#00B3FF" stop-opacity="0"/>
<stop offset="1" stop-color="#0043C4"/>
</linearGradient>
<linearGradient id="paint2_linear_173_9657" x1="17.4621" y1="44.7382" x2="15.7826" y2="38.8064" gradientUnits="userSpaceOnUse">
<stop stop-color="#9344E4"/>
<stop offset="1" stop-color="#BC6BE3" stop-opacity="0"/>
</linearGradient>
<linearGradient id="paint3_linear_173_9657" x1="37.2853" y1="31.312" x2="42.3754" y2="26.1459" gradientUnits="userSpaceOnUse">
<stop stop-color="#9344E4"/>
<stop offset="1" stop-color="#BC6BE3" stop-opacity="0"/>
</linearGradient>
<linearGradient id="paint4_linear_173_9657" x1="-1.82336" y1="23.7466" x2="2.94067" y2="19.5383" gradientUnits="userSpaceOnUse">
<stop stop-color="#00B3FF" stop-opacity="0"/>
<stop offset="1" stop-color="#0043C4"/>
</linearGradient>
<linearGradient id="paint5_linear_173_9657" x1="21.8335" y1="27.4593" x2="16.4184" y2="19.8881" gradientUnits="userSpaceOnUse">
<stop stop-color="#FF9947"/>
<stop offset="0.29" stop-color="#FFB752" stop-opacity="0.65"/>
<stop offset="0.54" stop-color="#FFCF5C" stop-opacity="0.37"/>
<stop offset="0.75" stop-color="#FFE063" stop-opacity="0.17"/>
<stop offset="0.91" stop-color="#FFEB67" stop-opacity="0.05"/>
<stop offset="1" stop-color="#FFEF69" stop-opacity="0"/>
</linearGradient>
</defs>
</svg>
